<?xml version="1.0" standalone="no"?>
<!DOCTYPE svg PUBLIC "-//W3C//DTD SVG 20010904//EN"
 "http://www.w3.org/TR/2001/REC-SVG-20010904/DTD/svg10.dtd">
<svg version="1.0" xmlns="http://www.w3.org/2000/svg"
 width="899.000000pt" height="1280.000000pt" viewBox="0 0 899.000000 1280.000000"
 preserveAspectRatio="xMidYMid meet">
<metadata>
Created by potrace 1.15, written by Peter Selinger 2001-2017
</metadata>
<g transform="translate(0.000000,1280.000000) scale(0.100000,-0.100000)"
fill="#000000" stroke="none">
<path d="M5155 12789 c-95 -9 -219 -40 -272 -68 -21 -10 -76 -47 -123 -80 -74
-53 -93 -74 -165 -178 -78 -116 -81 -119 -155 -155 -41 -20 -91 -40 -110 -44
-19 -3 -47 -13 -61 -22 -38 -21 -127 -158 -148 -228 -24 -76 -21 -211 5 -259
17 -32 17 -34 0 -60 -11 -17 -49 -42 -104 -67 -288 -132 -430 -213 -410 -233
3 -4 30 0 60 8 29 9 80 20 113 27 33 6 88 21 121 33 59 20 63 20 88 4 30 -20
32 -34 10 -65 -21 -31 -11 -39 29 -23 18 7 44 18 59 24 21 8 31 8 39 0 22 -22
-11 -71 -101 -156 -49 -45 -114 -116 -146 -157 -31 -41 -81 -103 -111 -138
-51 -60 -53 -66 -53 -120 0 -70 10 -88 38 -73 24 13 89 90 127 151 47 75 171
177 201 166 8 -3 22 -23 31 -43 8 -21 21 -42 29 -46 18 -10 54 -81 54 -106 0
-27 -56 -73 -152 -123 -100 -52 -161 -108 -484 -449 -128 -135 -348 -362 -490
-504 -263 -265 -357 -372 -398 -454 -39 -77 -39 -97 -7 -257 17 -82 37 -219
46 -304 28 -274 54 -382 205 -845 56 -170 108 -340 116 -378 19 -90 18 -204
-2 -281 -29 -108 -5 -372 42 -479 14 -30 25 -39 58 -48 63 -16 66 -17 66 -34
0 -9 7 -29 15 -45 14 -26 21 -30 59 -30 30 0 48 6 61 20 21 23 35 18 35 -15 0
-37 39 -76 78 -77 18 -1 38 4 45 11 6 6 14 51 17 100 3 49 8 92 12 96 11 11
21 -122 14 -184 -4 -39 -2 -77 9 -116 18 -70 20 -197 3 -259 -10 -37 -9 -51 7
-92 10 -27 31 -68 48 -91 l30 -42 -26 -93 c-14 -51 -33 -132 -42 -180 -9 -54
-31 -121 -56 -175 -166 -359 -234 -562 -329 -987 -62 -275 -80 -337 -132 -441
-78 -156 -190 -284 -323 -367 -38 -25 -155 -89 -260 -143 -333 -171 -424 -231
-565 -375 -87 -88 -136 -146 -378 -451 -77 -97 -187 -227 -244 -290 -150 -164
-362 -365 -408 -389 -39 -20 -43 -20 -123 -5 -45 9 -101 20 -124 25 -66 16
-200 12 -259 -7 l-52 -16 -92 33 c-107 39 -124 35 -164 -32 -28 -49 -62 -225
-50 -261 4 -12 7 -61 5 -109 -1 -58 3 -98 13 -122 9 -22 12 -45 7 -62 -7 -27
-2 -85 20 -244 6 -47 13 -121 15 -165 19 -420 37 -546 109 -762 54 -161 114
-271 178 -329 66 -59 105 -66 175 -29 29 15 59 40 66 54 9 18 15 88 19 221 5
208 12 247 63 324 18 26 24 46 20 62 -5 18 4 43 30 89 19 36 40 67 45 70 4 3
13 25 20 48 15 56 52 94 126 127 80 37 97 63 88 135 l-6 54 53 27 c29 15 72
40 96 56 36 25 42 34 42 65 0 28 -8 43 -36 70 -20 18 -34 39 -31 46 10 26 238
270 406 434 177 174 238 221 461 358 257 158 595 389 770 525 163 127 412 267
610 344 228 89 271 111 350 182 52 47 529 676 653 861 106 158 167 266 389
692 262 502 289 551 308 551 9 0 108 -27 221 -60 112 -33 287 -80 389 -106
102 -25 309 -76 460 -114 152 -38 330 -80 396 -94 66 -13 155 -36 197 -50 88
-29 207 -87 225 -109 9 -11 6 -108 -13 -428 -14 -228 -25 -466 -25 -529 0
-162 23 -359 69 -593 46 -232 57 -312 72 -527 15 -211 23 -603 14 -697 -7 -75
-8 -78 -52 -118 -41 -38 -45 -46 -53 -111 -5 -38 -16 -86 -25 -107 -22 -53
-22 -199 0 -257 23 -59 22 -70 -5 -167 -29 -102 -22 -124 48 -156 41 -19 69
-22 226 -25 122 -3 221 1 310 12 236 28 428 46 596 56 204 13 280 23 440 62
161 38 292 100 365 171 46 45 54 59 61 102 6 43 3 56 -21 103 -49 94 -88 105
-316 90 -149 -9 -158 -9 -197 11 -22 11 -71 29 -109 40 -39 10 -92 34 -119 53
-27 20 -73 48 -103 64 -29 16 -61 39 -69 52 -15 23 -14 25 3 38 10 8 41 14 68
14 26 0 46 4 43 9 -3 5 -16 8 -30 8 -38 1 -152 42 -171 63 -27 30 -12 64 56
117 70 54 65 66 -12 27 -31 -15 -77 -28 -110 -31 -55 -5 -58 -5 -73 24 -17 34
-75 88 -104 97 -29 10 -33 25 -44 206 -14 234 -4 474 31 735 17 121 45 375 62
565 29 313 32 381 33 730 l1 385 29 105 c50 185 25 298 -96 427 -35 37 -98
111 -139 163 -168 210 -298 307 -769 572 -113 64 -279 158 -370 210 -91 52
-270 150 -399 218 -187 100 -238 131 -257 159 -13 20 -49 112 -80 205 l-57
171 11 105 c39 359 72 628 80 650 9 23 127 170 308 382 41 49 111 136 156 195
119 159 204 256 320 368 108 105 105 102 323 193 70 29 238 137 278 179 30 32
29 58 -4 68 -10 3 -27 1 -38 -4 -24 -13 -51 -14 -51 -2 0 4 17 30 39 57 38 48
131 228 131 253 0 7 -10 26 -21 43 -19 27 -20 34 -10 70 7 22 10 57 6 78 -4
25 0 56 14 96 13 41 17 64 10 76 -21 39 -50 19 -193 -126 -126 -128 -150 -148
-225 -185 -95 -47 -144 -53 -162 -20 -16 30 -5 71 46 179 32 67 45 108 45 138
0 48 -14 82 -34 82 -37 0 -72 -55 -210 -331 -143 -284 -146 -292 -146 -355 0
-93 -29 -154 -151 -314 -84 -111 -199 -223 -214 -208 -3 2 7 24 20 49 74 131
95 182 106 249 12 82 1 194 -31 306 -11 38 -27 138 -35 223 -21 214 -69 387
-129 466 -14 18 -76 66 -138 107 -136 91 -178 124 -228 181 l-38 43 9 115 c12
152 42 281 82 353 42 76 78 96 168 96 66 0 173 26 232 57 37 19 49 52 37 110
-7 41 -6 53 12 83 14 24 18 45 14 70 -3 23 0 42 10 55 12 15 13 35 8 83 l-6
62 46 50 c25 27 46 56 46 63 0 15 -26 53 -111 165 l-46 61 5 95 c5 109 -4 154
-55 274 l-35 83 37 32 37 32 -27 68 c-29 73 -80 126 -165 175 -25 14 -56 35
-70 47 -39 35 -82 53 -151 64 -73 12 -306 12 -424 0z m-1184 -3206 c5 -14 39
-186 75 -381 78 -427 77 -422 119 -547 18 -55 45 -152 59 -215 22 -102 25
-139 25 -330 l1 -215 -33 -75 c-18 -41 -75 -140 -127 -220 -52 -80 -136 -226
-186 -325 -49 -99 -97 -181 -105 -182 -8 -1 -40 28 -72 65 -31 37 -91 104
-131 149 -40 45 -80 97 -89 115 -9 18 -23 87 -32 153 -9 66 -36 197 -60 290
-83 320 -90 371 -105 750 -5 127 -16 301 -26 387 -9 86 -14 163 -12 170 3 7
44 34 92 60 130 72 332 200 463 294 64 46 120 84 125 84 5 0 13 -12 19 -27z"/>
<path d="M3685 10710 c-11 -17 5 -32 21 -19 7 6 11 15 8 20 -7 12 -21 11 -29
-1z"/>
</g>
</svg>
